<svg width="110" height="20" viewBox="0 0 110 20" fill="none" xmlns="http://www.w3.org/2000/svg">
<path d="M9 0L11.0206 6.90983H17.5595L12.2694 11.1803L14.2901 18.0902L9 13.8197L3.70993 18.0902L5.73056 11.1803L0.440492 6.90983H6.97937L9 0Z" fill="#FFE798"/>
<path d="M32 0L34.0206 6.90983H40.5595L35.2694 11.1803L37.2901 18.0902L32 13.8197L26.7099 18.0902L28.7306 11.1803L23.4405 6.90983H29.9794L32 0Z" fill="#FFE798"/>
<path d="M55 0L57.0206 6.90983H63.5595L58.2694 11.1803L60.2901 18.0902L55 13.8197L49.7099 18.0902L51.7306 11.1803L46.4405 6.90983H52.9794L55 0Z" fill="#FFE798"/>
<path d="M78 0L80.0206 6.90983H86.5595L81.2694 11.1803L83.2901 18.0902L78 13.8197L72.7099 18.0902L74.7306 11.1803L69.4405 6.90983H75.9794L78 0Z" fill="#FFE798"/>
<path d="M101 0L103.021 6.90983H109.56L104.269 11.1803L106.29 18.0902L101 13.8197L95.7099 18.0902L97.7306 11.1803L92.4405 6.90983H98.9794L101 0Z" fill="#FFE798"/>
</svg>
