<svg width="60" height="60" viewBox="0 0 60 60" fill="none" xmlns="http://www.w3.org/2000/svg">
<g id="Youtube" clip-path="url(#clip0_12_148)">
<path id="Combined Shape" fill-rule="evenodd" clip-rule="evenodd" d="M30 0C13.4315 0 0 13.4315 0 30C0 46.5685 13.4315 60 30 60C46.5685 60 60 46.5685 60 30C60 13.4315 46.5685 0 30 0ZM44.408 20.7158C45.367 21.708 45.68 23.9613 45.68 23.9613C45.68 23.9613 46 26.6081 46 29.2538V31.735C46 34.3817 45.68 37.0274 45.68 37.0274C45.68 37.0274 45.367 39.2807 44.408 40.273C43.3116 41.4468 42.0958 41.5681 41.4087 41.6367C41.3331 41.6442 41.2639 41.6511 41.202 41.6587C36.724 41.9898 30 42 30 42C30 42 21.68 41.9223 19.12 41.6709C18.9987 41.6478 18.8517 41.6298 18.6852 41.6094C17.8743 41.51 16.6015 41.354 15.591 40.273C14.632 39.2807 14.32 37.0274 14.32 37.0274C14.32 37.0274 14 34.3817 14 31.735V29.2538C14 26.6081 14.32 23.9613 14.32 23.9613C14.32 23.9613 14.632 21.708 15.591 20.7158C16.6899 19.5403 17.9067 19.4203 18.594 19.3526C18.6685 19.3452 18.7368 19.3385 18.798 19.3311C23.276 19 29.993 19 29.993 19H30.007C30.007 19 36.724 19 41.202 19.3311C41.2632 19.3385 41.3315 19.3452 41.4061 19.3526C42.0928 19.4204 43.3102 19.5405 44.408 20.7158Z" fill="white"/>
<path id="Path" fill-rule="evenodd" clip-rule="evenodd" d="M26.6959 34.7417L26.6949 25.5537L35.3409 30.1635L26.6959 34.7417Z" fill="white"/>
</g>
<defs>
<clipPath id="clip0_12_148">
<rect width="60" height="60" fill="white"/>
</clipPath>
</defs>
</svg>
